<mxfile host="Electron" agent="Mozilla/5.0 (Windows NT 10.0; Win64; x64) AppleWebKit/537.36 (KHTML, like Gecko) draw.io/24.7.17 Chrome/128.0.6613.36 Electron/32.0.1 Safari/537.36" version="24.7.17">
  <diagram name="Page-1" id="0HnZSg_ROv_6RZ8t5VsM">
    <mxGraphModel dx="1300" dy="827" grid="1" gridSize="10" guides="1" tooltips="1" connect="1" arrows="1" fold="1" page="1" pageScale="1" pageWidth="850" pageHeight="1100" math="0" shadow="0">
      <root>
        <mxCell id="0" />
        <mxCell id="1" parent="0" />
        <mxCell id="88cNKjLW5lXE83TqQtID-32" value="" style="edgeStyle=orthogonalEdgeStyle;rounded=0;orthogonalLoop=1;jettySize=auto;html=1;" edge="1" parent="1" source="88cNKjLW5lXE83TqQtID-1" target="88cNKjLW5lXE83TqQtID-31">
          <mxGeometry relative="1" as="geometry" />
        </mxCell>
        <mxCell id="88cNKjLW5lXE83TqQtID-49" value="" style="edgeStyle=orthogonalEdgeStyle;rounded=0;orthogonalLoop=1;jettySize=auto;html=1;" edge="1" parent="1" source="88cNKjLW5lXE83TqQtID-1" target="88cNKjLW5lXE83TqQtID-48">
          <mxGeometry relative="1" as="geometry" />
        </mxCell>
        <mxCell id="88cNKjLW5lXE83TqQtID-1" value="PATIENT/STUDENT" style="rounded=1;whiteSpace=wrap;html=1;" vertex="1" parent="1">
          <mxGeometry x="1170" y="210" width="120" height="60" as="geometry" />
        </mxCell>
        <mxCell id="88cNKjLW5lXE83TqQtID-25" value="" style="edgeStyle=orthogonalEdgeStyle;rounded=0;orthogonalLoop=1;jettySize=auto;html=1;" edge="1" parent="1" source="88cNKjLW5lXE83TqQtID-2" target="88cNKjLW5lXE83TqQtID-24">
          <mxGeometry relative="1" as="geometry" />
        </mxCell>
        <mxCell id="88cNKjLW5lXE83TqQtID-29" value="" style="edgeStyle=orthogonalEdgeStyle;rounded=0;orthogonalLoop=1;jettySize=auto;html=1;" edge="1" parent="1" source="88cNKjLW5lXE83TqQtID-2" target="88cNKjLW5lXE83TqQtID-28">
          <mxGeometry relative="1" as="geometry" />
        </mxCell>
        <mxCell id="88cNKjLW5lXE83TqQtID-2" value="COUNSELOR" style="rounded=1;whiteSpace=wrap;html=1;" vertex="1" parent="1">
          <mxGeometry x="760" y="210" width="120" height="60" as="geometry" />
        </mxCell>
        <mxCell id="88cNKjLW5lXE83TqQtID-9" value="" style="edgeStyle=orthogonalEdgeStyle;rounded=0;orthogonalLoop=1;jettySize=auto;html=1;" edge="1" parent="1" source="88cNKjLW5lXE83TqQtID-3" target="88cNKjLW5lXE83TqQtID-8">
          <mxGeometry relative="1" as="geometry" />
        </mxCell>
        <mxCell id="88cNKjLW5lXE83TqQtID-3" value="ADMIN" style="rounded=1;whiteSpace=wrap;html=1;" vertex="1" parent="1">
          <mxGeometry x="60" y="200" width="120" height="60" as="geometry" />
        </mxCell>
        <mxCell id="88cNKjLW5lXE83TqQtID-13" value="" style="edgeStyle=orthogonalEdgeStyle;rounded=0;orthogonalLoop=1;jettySize=auto;html=1;" edge="1" parent="1" source="88cNKjLW5lXE83TqQtID-5" target="88cNKjLW5lXE83TqQtID-12">
          <mxGeometry relative="1" as="geometry" />
        </mxCell>
        <mxCell id="88cNKjLW5lXE83TqQtID-5" value="COUNSELOR LIST" style="rounded=1;whiteSpace=wrap;html=1;" vertex="1" parent="1">
          <mxGeometry x="305" y="250" width="120" height="60" as="geometry" />
        </mxCell>
        <mxCell id="88cNKjLW5lXE83TqQtID-16" value="" style="edgeStyle=orthogonalEdgeStyle;rounded=0;orthogonalLoop=1;jettySize=auto;html=1;" edge="1" parent="1" source="88cNKjLW5lXE83TqQtID-6" target="88cNKjLW5lXE83TqQtID-15">
          <mxGeometry relative="1" as="geometry" />
        </mxCell>
        <mxCell id="88cNKjLW5lXE83TqQtID-6" value="STUDENT LIST" style="rounded=1;whiteSpace=wrap;html=1;" vertex="1" parent="1">
          <mxGeometry x="305" y="410" width="120" height="60" as="geometry" />
        </mxCell>
        <mxCell id="88cNKjLW5lXE83TqQtID-8" value="CRUD" style="whiteSpace=wrap;html=1;rounded=1;" vertex="1" parent="1">
          <mxGeometry x="60" y="300" width="120" height="60" as="geometry" />
        </mxCell>
        <mxCell id="88cNKjLW5lXE83TqQtID-10" value="ADD - SECTION" style="whiteSpace=wrap;html=1;rounded=1;" vertex="1" parent="1">
          <mxGeometry x="60" y="390" width="120" height="60" as="geometry" />
        </mxCell>
        <mxCell id="88cNKjLW5lXE83TqQtID-11" value="MESSAGE" style="whiteSpace=wrap;html=1;rounded=1;" vertex="1" parent="1">
          <mxGeometry x="305" y="490" width="120" height="60" as="geometry" />
        </mxCell>
        <mxCell id="88cNKjLW5lXE83TqQtID-12" value="-ARCHIVE&lt;div&gt;-REQUEST CHANGE PASSWORD&lt;/div&gt;" style="whiteSpace=wrap;html=1;rounded=1;" vertex="1" parent="1">
          <mxGeometry x="520" y="250" width="120" height="60" as="geometry" />
        </mxCell>
        <mxCell id="88cNKjLW5lXE83TqQtID-15" value="-ARCHIVE&lt;div&gt;-REQUEST CHANGE PASSWORD&lt;/div&gt;" style="whiteSpace=wrap;html=1;rounded=1;" vertex="1" parent="1">
          <mxGeometry x="520" y="410" width="120" height="60" as="geometry" />
        </mxCell>
        <mxCell id="88cNKjLW5lXE83TqQtID-17" value="ADD - COURSE" style="whiteSpace=wrap;html=1;rounded=1;" vertex="1" parent="1">
          <mxGeometry x="60" y="490" width="120" height="60" as="geometry" />
        </mxCell>
        <mxCell id="88cNKjLW5lXE83TqQtID-20" value="" style="edgeStyle=orthogonalEdgeStyle;rounded=0;orthogonalLoop=1;jettySize=auto;html=1;" edge="1" parent="1" source="88cNKjLW5lXE83TqQtID-18" target="88cNKjLW5lXE83TqQtID-19">
          <mxGeometry relative="1" as="geometry" />
        </mxCell>
        <mxCell id="88cNKjLW5lXE83TqQtID-18" value="PDS PRINT" style="whiteSpace=wrap;html=1;rounded=1;" vertex="1" parent="1">
          <mxGeometry x="305" y="570" width="120" height="60" as="geometry" />
        </mxCell>
        <mxCell id="88cNKjLW5lXE83TqQtID-19" value="COUNT PDS PRINT" style="whiteSpace=wrap;html=1;rounded=1;" vertex="1" parent="1">
          <mxGeometry x="510" y="570" width="120" height="60" as="geometry" />
        </mxCell>
        <mxCell id="88cNKjLW5lXE83TqQtID-23" value="ADD - COUNSELOR&amp;nbsp;&lt;div&gt;SKILLS SET&lt;/div&gt;" style="whiteSpace=wrap;html=1;rounded=1;" vertex="1" parent="1">
          <mxGeometry x="60" y="580" width="120" height="60" as="geometry" />
        </mxCell>
        <mxCell id="88cNKjLW5lXE83TqQtID-24" value="STUDENT SCHEDULE FOR APPOINTMENT" style="whiteSpace=wrap;html=1;rounded=1;" vertex="1" parent="1">
          <mxGeometry x="960" y="210" width="120" height="60" as="geometry" />
        </mxCell>
        <mxCell id="88cNKjLW5lXE83TqQtID-26" value="LIST OF STUDENT&amp;nbsp;&lt;div&gt;SCHEDULE&lt;/div&gt;" style="whiteSpace=wrap;html=1;rounded=1;" vertex="1" parent="1">
          <mxGeometry x="960" y="380" width="120" height="60" as="geometry" />
        </mxCell>
        <mxCell id="88cNKjLW5lXE83TqQtID-27" value="LIST OF STUDENT&amp;nbsp;&lt;div&gt;REQUEST&lt;/div&gt;" style="whiteSpace=wrap;html=1;rounded=1;" vertex="1" parent="1">
          <mxGeometry x="960" y="300" width="120" height="60" as="geometry" />
        </mxCell>
        <mxCell id="88cNKjLW5lXE83TqQtID-43" value="" style="edgeStyle=orthogonalEdgeStyle;rounded=0;orthogonalLoop=1;jettySize=auto;html=1;" edge="1" parent="1" source="88cNKjLW5lXE83TqQtID-28" target="88cNKjLW5lXE83TqQtID-42">
          <mxGeometry relative="1" as="geometry" />
        </mxCell>
        <mxCell id="88cNKjLW5lXE83TqQtID-28" value="CRUD" style="whiteSpace=wrap;html=1;rounded=1;" vertex="1" parent="1">
          <mxGeometry x="760" y="290" width="120" height="60" as="geometry" />
        </mxCell>
        <mxCell id="88cNKjLW5lXE83TqQtID-30" value="PRINT STUDENT PDS" style="whiteSpace=wrap;html=1;rounded=1;" vertex="1" parent="1">
          <mxGeometry x="960" y="470" width="120" height="60" as="geometry" />
        </mxCell>
        <mxCell id="88cNKjLW5lXE83TqQtID-31" value="CRUD" style="whiteSpace=wrap;html=1;rounded=1;" vertex="1" parent="1">
          <mxGeometry x="1170" y="300" width="120" height="60" as="geometry" />
        </mxCell>
        <mxCell id="88cNKjLW5lXE83TqQtID-40" value="" style="edgeStyle=orthogonalEdgeStyle;rounded=0;orthogonalLoop=1;jettySize=auto;html=1;" edge="1" parent="1" source="88cNKjLW5lXE83TqQtID-34" target="88cNKjLW5lXE83TqQtID-39">
          <mxGeometry relative="1" as="geometry" />
        </mxCell>
        <mxCell id="88cNKjLW5lXE83TqQtID-34" value="WALK IN STUDENT REGISTRATION" style="whiteSpace=wrap;html=1;rounded=1;" vertex="1" parent="1">
          <mxGeometry x="305" y="330" width="120" height="60" as="geometry" />
        </mxCell>
        <mxCell id="88cNKjLW5lXE83TqQtID-39" value="VERIFICATION PURPOSES IF STUDENT OR NOT" style="whiteSpace=wrap;html=1;rounded=1;" vertex="1" parent="1">
          <mxGeometry x="520" y="330" width="120" height="60" as="geometry" />
        </mxCell>
        <mxCell id="88cNKjLW5lXE83TqQtID-41" style="edgeStyle=orthogonalEdgeStyle;rounded=0;orthogonalLoop=1;jettySize=auto;html=1;exitX=1;exitY=0.5;exitDx=0;exitDy=0;entryX=1;entryY=1;entryDx=0;entryDy=0;" edge="1" parent="1" source="88cNKjLW5lXE83TqQtID-12" target="88cNKjLW5lXE83TqQtID-12">
          <mxGeometry relative="1" as="geometry" />
        </mxCell>
        <mxCell id="88cNKjLW5lXE83TqQtID-42" value="VALIDATION MUST COMPLETE THE SKILLS SET IF CAPABLE" style="whiteSpace=wrap;html=1;rounded=1;" vertex="1" parent="1">
          <mxGeometry x="760" y="430" width="120" height="60" as="geometry" />
        </mxCell>
        <mxCell id="88cNKjLW5lXE83TqQtID-44" style="edgeStyle=orthogonalEdgeStyle;rounded=0;orthogonalLoop=1;jettySize=auto;html=1;exitX=0.75;exitY=1;exitDx=0;exitDy=0;entryX=1;entryY=1;entryDx=0;entryDy=0;" edge="1" parent="1" source="88cNKjLW5lXE83TqQtID-18" target="88cNKjLW5lXE83TqQtID-18">
          <mxGeometry relative="1" as="geometry" />
        </mxCell>
        <mxCell id="88cNKjLW5lXE83TqQtID-45" value="LIST OF INCIDENT REPORT" style="whiteSpace=wrap;html=1;rounded=1;" vertex="1" parent="1">
          <mxGeometry x="305" y="660" width="120" height="60" as="geometry" />
        </mxCell>
        <mxCell id="88cNKjLW5lXE83TqQtID-46" value="INCIDENT REPORT&amp;nbsp;" style="whiteSpace=wrap;html=1;rounded=1;" vertex="1" parent="1">
          <mxGeometry x="960" y="570" width="120" height="60" as="geometry" />
        </mxCell>
        <mxCell id="88cNKjLW5lXE83TqQtID-47" value="MUST COMPLETE PROFILING DATASHEET" style="whiteSpace=wrap;html=1;rounded=1;" vertex="1" parent="1">
          <mxGeometry x="1170" y="400" width="120" height="60" as="geometry" />
        </mxCell>
        <mxCell id="88cNKjLW5lXE83TqQtID-51" value="" style="edgeStyle=orthogonalEdgeStyle;rounded=0;orthogonalLoop=1;jettySize=auto;html=1;" edge="1" parent="1" source="88cNKjLW5lXE83TqQtID-48" target="88cNKjLW5lXE83TqQtID-50">
          <mxGeometry relative="1" as="geometry" />
        </mxCell>
        <mxCell id="88cNKjLW5lXE83TqQtID-48" value="BOOK APPOINTMENT FOR COUNSELOR" style="whiteSpace=wrap;html=1;rounded=1;" vertex="1" parent="1">
          <mxGeometry x="1370" y="210" width="120" height="60" as="geometry" />
        </mxCell>
        <mxCell id="88cNKjLW5lXE83TqQtID-50" value="LIST OF SCHEDULE APPOINTMENT" style="whiteSpace=wrap;html=1;rounded=1;" vertex="1" parent="1">
          <mxGeometry x="1370" y="320" width="120" height="60" as="geometry" />
        </mxCell>
        <mxCell id="88cNKjLW5lXE83TqQtID-52" value="VIEW PROFILING DATASHEET" style="whiteSpace=wrap;html=1;rounded=1;" vertex="1" parent="1">
          <mxGeometry x="1370" y="410" width="120" height="60" as="geometry" />
        </mxCell>
      </root>
    </mxGraphModel>
  </diagram>
</mxfile>
